HIERARCHY
ROOT mixamorig:Hips
{
	OFFSET 0.00 0.00 0.00
	CHANNELS 6 Xposition Yposition Zposition Zrotation Yrotation Xrotation
	JOINT mixamorig:Spine
	{
		OFFSET	0.0000	9.9235	-1.2273
		CHANNELS 3 Zrotation Yrotation Xrotation
		JOINT mixamorig:Spine1
		{
			OFFSET	-0.0001	11.6455	-1.4224
			CHANNELS 3 Zrotation Yrotation Xrotation
			JOINT mixamorig:Spine2
			{
				OFFSET	0.0001	13.3602	-1.6265
				CHANNELS 3 Zrotation Yrotation Xrotation
				JOINT mixamorig:Neck
				{
					OFFSET	0.0000	15.0325	0.7929
					CHANNELS 3 Zrotation Yrotation Xrotation
					JOINT mixamorig:Head
					{
						OFFSET	-0.0000	10.3218	3.1424
						CHANNELS 3 Zrotation Yrotation Xrotation
						JOINT mixamorig:HeadTop_End
						{
							OFFSET	0.0002	18.4747	6.6364
							CHANNELS 3 Zrotation Yrotation Xrotation
							End Site
							{
								OFFSET 0.0000 0.0000 0.0000
							}
						}
						JOINT mixamorig:LeftEye
						{
							OFFSET	2.9479	7.6817	9.1207
							CHANNELS 3 Zrotation Yrotation Xrotation
							End Site
							{
								OFFSET 0.0000 0.0000 0.0000
							}
						}
						JOINT mixamorig:RightEye
						{
							OFFSET	-2.9445	7.6817	9.1205
							CHANNELS 3 Zrotation Yrotation Xrotation
							End Site
							{
								OFFSET 0.0000 0.0000 0.0000
							}
						}
					}
				}
				JOINT mixamorig:LeftShoulder
				{
					OFFSET	6.1059	9.1104	0.7056
					CHANNELS 3 Zrotation Yrotation Xrotation
					JOINT mixamorig:LeftArm
					{
						OFFSET	12.6532	-0.3431	-2.6009
						CHANNELS 3 Zrotation Yrotation Xrotation
						JOINT mixamorig:LeftForeArm
						{
							OFFSET	27.3517	-0.9645	-1.4034
							CHANNELS 3 Zrotation Yrotation Xrotation
							JOINT mixamorig:LeftHand
							{
								OFFSET	27.5619	-0.7072	1.5500
								CHANNELS 3 Zrotation Yrotation Xrotation
								JOINT mixamorig:LeftHandMiddle1
								{
									OFFSET	12.6630	-1.3962	0.9548
									CHANNELS 3 Zrotation Yrotation Xrotation
									JOINT mixamorig:LeftHandMiddle2
									{
										OFFSET	3.6093	-0.1669	0.0778
										CHANNELS 3 Zrotation Yrotation Xrotation
										JOINT mixamorig:LeftHandMiddle3
										{
											OFFSET	3.4004	-0.6274	0.1148
											CHANNELS 3 Zrotation Yrotation Xrotation
											End Site
											{
												OFFSET 3.6205 -0.6493 0.1199
											}
										}
									}
								}
								JOINT mixamorig:LeftHandThumb1
								{
									OFFSET	3.3268	-2.0474	3.5790
									CHANNELS 3 Zrotation Yrotation Xrotation
									JOINT mixamorig:LeftHandThumb2
									{
										OFFSET	3.4890	-1.4806	2.8548
										CHANNELS 3 Zrotation Yrotation Xrotation
										JOINT mixamorig:LeftHandThumb3
										{
											OFFSET	3.4086	-1.7658	2.1133
											CHANNELS 3 Zrotation Yrotation Xrotation
											End Site
											{
												OFFSET 2.7231 -1.1597 1.7903
											}
										}
									}
								}
								JOINT mixamorig:LeftHandIndex1
								{
									OFFSET	11.9722	-1.1061	3.7324
									CHANNELS 3 Zrotation Yrotation Xrotation
									JOINT mixamorig:LeftHandIndex2
									{
										OFFSET	3.8387	-0.6406	-0.0310
										CHANNELS 3 Zrotation Yrotation Xrotation
										JOINT mixamorig:LeftHandIndex3
										{
											OFFSET	3.3346	-0.7374	-0.0133
											CHANNELS 3 Zrotation Yrotation Xrotation
											End Site
											{
												OFFSET 2.9714 -0.8030 0.0009
											}
										}
									}
								}
								JOINT mixamorig:LeftHandRing1
								{
									OFFSET	12.1659	-1.6805	-1.2769
									CHANNELS 3 Zrotation Yrotation Xrotation
									JOINT mixamorig:LeftHandRing2
									{
										OFFSET	3.5925	-0.2366	-0.0771
										CHANNELS 3 Zrotation Yrotation Xrotation
										JOINT mixamorig:LeftHandRing3
										{
											OFFSET	3.2906	-0.3266	-0.0615
											CHANNELS 3 Zrotation Yrotation Xrotation
											End Site
											{
												OFFSET 3.5423 -0.9211 -0.0200
											}
										}
									}
								}
								JOINT mixamorig:LeftHandPinky1
								{
									OFFSET	11.0508	-2.1872	-3.8040
									CHANNELS 3 Zrotation Yrotation Xrotation
									JOINT mixamorig:LeftHandPinky2
									{
										OFFSET	4.1236	-0.3047	0.1212
										CHANNELS 3 Zrotation Yrotation Xrotation
										JOINT mixamorig:LeftHandPinky3
										{
											OFFSET	2.5805	-0.2597	0.0823
											CHANNELS 3 Zrotation Yrotation Xrotation
											End Site
											{
												OFFSET 2.9027 -0.3379 0.0963
											}
										}
									}
								}
							}
						}
					}
				}
				JOINT mixamorig:RightShoulder
				{
					OFFSET	-6.1057	9.1105	0.7056
					CHANNELS 3 Zrotation Yrotation Xrotation
					JOINT mixamorig:RightArm
					{
						OFFSET	-12.6532	-0.3429	-2.6009
						CHANNELS 3 Zrotation Yrotation Xrotation
						JOINT mixamorig:RightForeArm
						{
							OFFSET	-27.3518	-0.9642	-1.4034
							CHANNELS 3 Zrotation Yrotation Xrotation
							JOINT mixamorig:RightHand
							{
								OFFSET	-27.5619	-0.7068	1.5501
								CHANNELS 3 Zrotation Yrotation Xrotation
								JOINT mixamorig:RightHandMiddle1
								{
									OFFSET	-12.6630	-1.3960	0.9549
									CHANNELS 3 Zrotation Yrotation Xrotation
									JOINT mixamorig:RightHandMiddle2
									{
										OFFSET	-3.6093	-0.1669	0.0778
										CHANNELS 3 Zrotation Yrotation Xrotation
										JOINT mixamorig:RightHandMiddle3
										{
											OFFSET	-3.4004	-0.6273	0.1148
											CHANNELS 3 Zrotation Yrotation Xrotation
											End Site
											{
												OFFSET -3.6205 -0.6492 0.1199
											}
										}
									}
								}
								JOINT mixamorig:RightHandThumb1
								{
									OFFSET	-3.3269	-2.0474	3.5790
									CHANNELS 3 Zrotation Yrotation Xrotation
									JOINT mixamorig:RightHandThumb2
									{
										OFFSET	-3.4890	-1.4805	2.8548
										CHANNELS 3 Zrotation Yrotation Xrotation
										JOINT mixamorig:RightHandThumb3
										{
											OFFSET	-3.4086	-1.7658	2.1133
											CHANNELS 3 Zrotation Yrotation Xrotation
											End Site
											{
												OFFSET -2.7231 -1.1596 1.7903
											}
										}
									}
								}
								JOINT mixamorig:RightHandIndex1
								{
									OFFSET	-11.9722	-1.1059	3.7324
									CHANNELS 3 Zrotation Yrotation Xrotation
									JOINT mixamorig:RightHandIndex2
									{
										OFFSET	-3.8387	-0.6406	-0.0310
										CHANNELS 3 Zrotation Yrotation Xrotation
										JOINT mixamorig:RightHandIndex3
										{
											OFFSET	-3.3346	-0.7373	-0.0133
											CHANNELS 3 Zrotation Yrotation Xrotation
											End Site
											{
												OFFSET -2.9715 -0.8029 0.0009
											}
										}
									}
								}
								JOINT mixamorig:RightHandRing1
								{
									OFFSET	-12.1659	-1.6803	-1.2769
									CHANNELS 3 Zrotation Yrotation Xrotation
									JOINT mixamorig:RightHandRing2
									{
										OFFSET	-3.5925	-0.2366	-0.0771
										CHANNELS 3 Zrotation Yrotation Xrotation
										JOINT mixamorig:RightHandRing3
										{
											OFFSET	-3.2906	-0.3265	-0.0615
											CHANNELS 3 Zrotation Yrotation Xrotation
											End Site
											{
												OFFSET -3.5423 -0.9210 -0.0200
											}
										}
									}
								}
								JOINT mixamorig:RightHandPinky1
								{
									OFFSET	-11.0508	-2.1870	-3.8040
									CHANNELS 3 Zrotation Yrotation Xrotation
									JOINT mixamorig:RightHandPinky2
									{
										OFFSET	-4.1236	-0.3046	0.1212
										CHANNELS 3 Zrotation Yrotation Xrotation
										JOINT mixamorig:RightHandPinky3
										{
											OFFSET	-2.5805	-0.2597	0.0823
											CHANNELS 3 Zrotation Yrotation Xrotation
											End Site
											{
												OFFSET -2.9027 -0.3379 0.0963
											}
										}
									}
								}
							}
						}
					}
				}
			}
		}
	}
	JOINT mixamorig:RightUpLeg
	{
		OFFSET	-9.1245	-6.6564	-0.0554
		CHANNELS 3 Zrotation Yrotation Xrotation
		JOINT mixamorig:RightLeg
		{
			OFFSET	0.0000	-40.5610	-1.7662
			CHANNELS 3 Zrotation Yrotation Xrotation
			JOINT mixamorig:RightFoot
			{
				OFFSET	0.4978	-41.9625	-3.3512
				CHANNELS 3 Zrotation Yrotation Xrotation
				JOINT mixamorig:RightToeBase
				{
					OFFSET	-0.3734	-10.4922	12.6406
					CHANNELS 3 Zrotation Yrotation Xrotation
					End Site
					{
						OFFSET 0.0000 0.0000 9.9925
					}
				}
			}
		}
	}
	JOINT mixamorig:LeftUpLeg
	{
		OFFSET	9.1245	-6.6564	-0.0554
		CHANNELS 3 Zrotation Yrotation Xrotation
		JOINT mixamorig:LeftLeg
		{
			OFFSET	-0.0000	-40.5610	-1.7662
			CHANNELS 3 Zrotation Yrotation Xrotation
			JOINT mixamorig:LeftFoot
			{
				OFFSET	-0.4978	-41.9625	-3.3512
				CHANNELS 3 Zrotation Yrotation Xrotation
				JOINT mixamorig:LeftToeBase
				{
					OFFSET	0.3734	-10.4922	12.6406
					CHANNELS 3 Zrotation Yrotation Xrotation
					End Site
					{
						OFFSET -0.0000 0.0000 9.9925
					}
				}
			}
		}
	}
}
MOTION
Frames: 8
Frame Time: 0.0333333
0.3139 98.6390 -0.7642 0.2820 -4.0771 -2.7768 -0.5844 -0.0390 2.0726 -0.9053 -0.0949 4.1906 -0.9131 -0.0965 4.1892 0.1561 1.1014 -7.8289 1.7009 5.4832 -1.7849 0.0000 -0.0000 0.0000 0.0000 -0.0000 0.0000 0.0000 -0.0000 0.0000 -3.1794 0.7929 0.7728 -62.7979 -17.0534 54.8836 -0.4592 -19.2745 -0.5134 -15.4660 16.1821 -27.7718 -11.1194 -3.3231 0.5981 0.2977 0.3769 0.0361 -4.0283 -0.1880 0.1065 -1.5157 8.6031 4.1422 1.4254 15.4597 0.6494 -1.3776 10.4148 3.0381 -4.2970 -4.9926 -0.3570 -4.4945 -0.0272 -0.0312 -1.0919 0.1040 0.0224 -10.0305 -5.7834 0.2658 -5.5882 -0.1239 -0.1160 5.1642 0.5753 0.1935 -9.6470 1.1836 0.7789 -5.8307 -4.2376 0.2919 -2.8498 -0.0807 0.0858 11.5121 13.1758 6.6889 57.5279 14.7641 50.7802 0.5203 10.9634 -0.2835 -9.0500 -7.2481 -14.8854 10.9113 3.3082 0.5819 -0.5375 -0.3953 0.0325 3.9164 0.1793 0.1039 1.0566 -6.6613 3.6683 -1.0416 -15.0392 1.1898 1.5403 -8.1698 2.1974 4.0724 4.9752 -0.3725 4.2707 0.0111 -0.0274 0.9800 -0.1120 0.0247 9.8056 5.7676 0.2487 5.3646 0.1067 -0.1111 -5.2760 -0.5833 0.1973 9.3292 2.8744 0.4554 5.7409 0.1382 0.1702 2.7380 0.0721 0.0828 -2.8941 -3.8657 -11.2952 -1.0792 1.9088 16.3648 3.9432 -0.2302 -2.2413 0.0000 -0.0000 -0.0001 2.7153 0.8587 -9.4072 4.4444 5.8234 15.6962 -6.0354 0.1669 -2.7204 0.0000 -0.0000 -0.0000 
0.3129 98.6366 -0.8001 0.2791 -4.1516 -2.7653 -0.5847 -0.0419 2.0705 -0.9075 -0.0936 4.1916 -0.9147 -0.0953 4.1902 0.1542 1.1069 -7.8819 1.6406 5.5105 -1.8281 0.0000 -0.0000 0.0000 0.0000 -0.0000 0.0000 0.0000 -0.0000 0.0000 -3.2510 0.8415 0.7607 -62.7564 -17.0638 54.9904 -0.4587 -19.3315 -0.5150 -15.6638 16.2795 -27.9140 -11.1197 -3.3231 0.5982 0.2974 0.3769 0.0361 -4.0284 -0.1880 0.1065 -1.5157 8.6034 4.1422 1.4252 15.4620 0.6497 -1.3777 10.4159 3.0383 -4.2973 -4.9926 -0.3569 -4.4948 -0.0272 -0.0312 -1.0921 0.1040 0.0224 -10.0308 -5.7834 0.2658 -5.5886 -0.1239 -0.1160 5.1640 0.5753 0.1935 -9.6473 1.1836 0.7789 -5.8311 -4.2376 0.2919 -2.8500 -0.0807 0.0858 11.6110 13.2469 6.7356 57.3679 14.7693 50.8857 0.5201 11.0172 -0.2849 -9.3665 -7.1442 -14.6715 10.6462 3.3003 0.5614 -0.8020 -0.4059 0.0274 3.7842 0.1741 0.1001 1.0561 -6.6424 3.6665 -1.0528 -14.8453 1.1664 1.5344 -8.0726 2.1867 3.8068 4.9649 -0.3920 4.0060 0.0023 -0.0245 0.8477 -0.1163 0.0261 9.5396 5.7593 0.2282 5.1000 0.0967 -0.1057 -5.4084 -0.5878 0.2007 9.0643 2.8659 0.4351 5.4763 0.1284 0.1623 2.6057 0.0669 0.0789 -2.8615 -3.8313 -11.3515 -1.0850 1.9712 16.3675 3.9380 -0.2317 -2.2063 0.0000 0.0000 -0.0001 2.7375 0.8493 -9.4440 4.4446 5.9085 15.7246 -6.0333 0.1664 -2.7127 -0.0000 0.0000 -0.0000 
0.3076 98.6361 -0.8337 0.2611 -4.2059 -2.7431 -0.5840 -0.0452 2.0686 -0.9095 -0.0905 4.1881 -0.9163 -0.0923 4.1866 0.1528 1.1116 -7.9211 1.5990 5.5365 -1.8793 0.0000 -0.0000 0.0000 0.0000 -0.0000 0.0000 0.0000 -0.0000 0.0000 -3.3076 0.8895 0.7484 -62.7347 -17.0793 55.1424 -0.4579 -19.4132 -0.5173 -15.8773 16.4754 -28.1318 -11.1206 -3.3232 0.5982 0.2964 0.3769 0.0361 -4.0289 -0.1880 0.1065 -1.5158 8.6037 4.1423 1.4249 15.4674 0.6503 -1.3778 10.4186 3.0386 -4.2982 -4.9926 -0.3569 -4.4958 -0.0272 -0.0312 -1.0926 0.1040 0.0224 -10.0317 -5.7834 0.2659 -5.5895 -0.1239 -0.1160 5.1635 0.5753 0.1935 -9.6482 1.1835 0.7790 -5.8321 -4.2376 0.2920 -2.8505 -0.0808 0.0858 11.7019 13.3147 6.7797 57.2163 14.7715 50.9918 0.5196 11.1078 -0.2874 -9.6256 -7.1710 -14.4016 10.2565 3.2885 0.5314 -1.1909 -0.4216 0.0200 3.5897 0.1666 0.0945 1.0562 -6.6460 3.6668 -1.0599 -14.7225 1.1516 1.5306 -8.0111 2.1800 3.4164 4.9496 -0.4204 3.6170 -0.0105 -0.0201 0.6532 -0.1227 0.0282 9.1486 5.7469 0.1983 4.7111 0.0821 -0.0977 -5.6029 -0.5943 0.2057 8.6749 2.8532 0.4054 5.0875 0.1139 0.1506 2.4113 0.0594 0.0731 -2.8128 -3.8092 -11.3946 -1.0984 2.0173 16.3372 3.9346 -0.2339 -2.1596 -0.0000 0.0000 -0.0001 2.7837 0.8095 -9.4950 4.4375 6.0045 15.7562 -6.0314 0.1620 -2.7037 -0.0000 0.0000 -0.0001 
0.2992 98.6358 -0.8653 0.2274 -4.2434 -2.7016 -0.5820 -0.0483 2.0674 -0.9089 -0.0871 4.1804 -0.9157 -0.0888 4.1789 0.1507 1.1138 -7.9455 1.5714 5.5549 -1.9254 0.0000 -0.0000 0.0000 0.0000 -0.0000 0.0000 0.0000 -0.0000 0.0000 -3.3500 0.9353 0.7363 -62.7292 -17.1013 55.3159 -0.4572 -19.4872 -0.5195 -16.0545 16.6836 -28.3215 -11.1221 -3.3232 0.5984 0.2948 0.3768 0.0361 -4.0297 -0.1880 0.1066 -1.5158 8.6028 4.1422 1.4245 15.4736 0.6511 -1.3780 10.4218 3.0389 -4.2997 -4.9927 -0.3568 -4.4974 -0.0273 -0.0312 -1.0934 0.1040 0.0224 -10.0332 -5.7835 0.2660 -5.5912 -0.1240 -0.1160 5.1627 0.5753 0.1935 -9.6497 1.1835 0.7791 -5.8337 -4.2377 0.2922 -2.8513 -0.0808 0.0858 11.7601 13.3672 6.8120 57.0848 14.7748 51.0595 0.5192 11.1782 -0.2893 -9.9095 -7.2045 -14.1535 9.7635 3.2732 0.4934 -1.6828 -0.4414 0.0108 3.3437 0.1570 0.0874 1.0567 -6.6657 3.6687 -1.0640 -14.6522 1.1431 1.5285 -7.9759 2.1761 2.9225 4.9299 -0.4563 3.1248 -0.0268 -0.0144 0.4070 -0.1308 0.0309 8.6540 5.7310 0.1606 4.2190 0.0638 -0.0874 -5.8490 -0.6025 0.2120 8.1822 2.8370 0.3679 4.5955 0.0955 0.1360 2.1653 0.0499 0.0659 -2.7485 -3.7861 -11.4411 -1.1192 2.0375 16.2868 3.9329 -0.2368 -2.1059 0.0000 -0.0000 -0.0001 2.8514 0.7501 -9.5756 4.4272 6.0964 15.8037 -6.0327 0.1531 -2.7000 -0.0000 -0.0000 -0.0001 
0.2899 98.6344 -0.8933 0.1882 -4.2616 -2.6569 -0.5772 -0.0523 2.0684 -0.9010 -0.0886 4.1760 -0.9079 -0.0903 4.1745 0.1450 1.1167 -7.9592 1.5458 5.5690 -1.9587 0.0000 -0.0000 0.0000 0.0000 -0.0000 0.0000 0.0000 -0.0000 0.0000 -3.4024 0.9876 0.7226 -62.7140 -17.1330 55.4641 -0.4566 -19.5411 -0.5211 -16.1736 16.8420 -28.4016 -11.1242 -3.3233 0.5985 0.2926 0.3768 0.0362 -4.0309 -0.1881 0.1066 -1.5157 8.5996 4.1419 1.4242 15.4784 0.6516 -1.3782 10.4242 3.0392 -4.3018 -4.9928 -0.3566 -4.4997 -0.0274 -0.0312 -1.0945 0.1039 0.0224 -10.0353 -5.7835 0.2662 -5.5934 -0.1241 -0.1161 5.1616 0.5752 0.1935 -9.6517 1.1834 0.7792 -5.8359 -4.2378 0.2924 -2.8524 -0.0808 0.0858 11.7463 13.3994 6.8230 56.9922 14.7927 51.0643 0.5191 11.2035 -0.2899 -10.1644 -7.2576 -13.9805 9.1883 3.2550 0.4494 -2.2568 -0.4647 0.0002 3.0567 0.1458 0.0793 1.0574 -6.6953 3.6715 -1.0661 -14.6154 1.1387 1.5274 -7.9575 2.1741 2.3463 4.9066 -0.4980 2.5505 -0.0457 -0.0076 0.1199 -0.1401 0.0341 8.0770 5.7119 0.1167 3.6449 0.0424 -0.0751 -6.1361 -0.6120 0.2194 7.6074 2.8176 0.3244 4.0215 0.0738 0.1191 1.8784 0.0387 0.0575 -2.6829 -3.7663 -11.4855 -1.1415 2.0379 16.2398 3.9319 -0.2393 -2.0588 0.0000 -0.0000 -0.0000 2.9204 0.6959 -9.6685 4.4214 6.1603 15.8646 -6.0389 0.1395 -2.7026 -0.0000 0.0000 -0.0001 
0.2801 98.6330 -0.9155 0.1505 -4.2492 -2.6407 -0.5665 -0.0609 2.0737 -0.8789 -0.1038 4.1837 -0.8859 -0.1055 4.1821 0.1182 1.1255 -7.9632 1.5120 5.5904 -1.9822 0.0000 -0.0000 0.0000 0.0000 -0.0000 0.0000 0.0000 -0.0000 0.0000 -3.5033 1.0551 0.7054 -62.6574 -17.1683 55.5366 -0.4562 -19.5877 -0.5224 -16.2497 16.9341 -28.4097 -11.1268 -3.3234 0.5987 0.2897 0.3766 0.0362 -4.0323 -0.1881 0.1066 -1.5155 8.5930 4.1413 1.4241 15.4795 0.6518 -1.3782 10.4247 3.0393 -4.3044 -4.9929 -0.3564 -4.5025 -0.0275 -0.0313 -1.0959 0.1039 0.0224 -10.0379 -5.7836 0.2664 -5.5962 -0.1242 -0.1162 5.1602 0.5752 0.1935 -9.6543 1.1833 0.7795 -5.8388 -4.2379 0.2927 -2.8538 -0.0809 0.0859 11.6358 13.4194 6.8111 56.9703 14.8498 51.0474 0.5191 11.1983 -0.2898 -10.2653 -7.3470 -13.9283 8.5523 3.2344 0.4009 -2.8916 -0.4906 -0.0111 2.7393 0.1333 0.0703 1.0583 -6.7283 3.6746 -1.0673 -14.5933 1.1361 1.5268 -7.9464 2.1729 1.7091 4.8804 -0.5438 1.9153 -0.0665 0.0002 -0.1977 -0.1505 0.0376 7.4389 5.6903 0.0684 3.0100 0.0190 -0.0614 -6.4537 -0.6225 0.2277 6.9717 2.7956 0.2765 3.3867 0.0497 0.1007 1.5610 0.0263 0.0482 -2.6250 -3.7654 -11.4923 -1.1651 2.0272 16.1989 3.9325 -0.2412 -2.0250 -0.0000 0.0000 -0.0001 2.9769 0.6711 -9.7314 4.4198 6.1741 15.9187 -6.0475 0.1219 -2.7046 0.0000 0.0000 -0.0001 
0.2698 98.6320 -0.9327 0.1138 -4.2013 -2.6620 -0.5464 -0.0788 2.0830 -0.8356 -0.1404 4.2027 -0.8426 -0.1421 4.2012 0.0550 1.1455 -7.9545 1.4705 5.6334 -1.9948 0.0000 -0.0000 0.0000 0.0000 -0.0000 0.0000 0.0000 -0.0000 0.0000 -3.6874 1.1450 0.6836 -62.5389 -17.1940 55.5228 -0.4556 -19.6483 -0.5242 -16.3035 16.9764 -28.4319 -11.1299 -3.3235 0.5990 0.2863 0.3765 0.0363 -4.0340 -0.1882 0.1067 -1.5152 8.5820 4.1404 1.4244 15.4747 0.6512 -1.3781 10.4223 3.0390 -4.3076 -4.9930 -0.3562 -4.5059 -0.0276 -0.0313 -1.0977 0.1038 0.0224 -10.0411 -5.7837 0.2667 -5.5997 -0.1243 -0.1162 5.1584 0.5751 0.1934 -9.6575 1.1832 0.7797 -5.8422 -4.2380 0.2930 -2.8556 -0.0810 0.0859 11.4292 13.4415 6.7824 57.0652 14.9573 51.1461 0.5195 11.1250 -0.2878 -10.2734 -7.2396 -14.0296 7.8765 3.2119 0.3496 -3.5661 -0.5183 -0.0229 2.4021 0.1200 0.0608 1.0590 -6.7583 3.6775 -1.0687 -14.5671 1.1330 1.5261 -7.9333 2.1715 1.0320 4.8519 -0.5922 1.2405 -0.0885 0.0086 -0.5351 -0.1616 0.0415 6.7609 5.6668 0.0174 2.3353 -0.0057 -0.0464 -6.7911 -0.6336 0.2365 6.2964 2.7717 0.2258 2.7122 0.0238 0.0815 1.2238 0.0130 0.0385 -2.5703 -3.7936 -11.4496 -1.1974 2.0136 16.1594 3.9388 -0.2427 -2.0034 0.0000 0.0000 -0.0000 3.0225 0.6882 -9.7556 4.4153 6.1305 15.9628 -6.0538 0.1004 -2.7036 -0.0000 0.0000 -0.0000 
0.2629 98.6298 -0.9483 0.0823 -4.1225 -2.6940 -0.5124 -0.1087 2.0923 -0.7653 -0.2014 4.2222 -0.7724 -0.2031 4.2208 -0.0508 1.1812 -7.9302 1.4005 5.7147 -1.9852 0.0000 -0.0000 0.0000 0.0000 -0.0000 0.0000 0.0000 -0.0000 0.0000 -3.9846 1.2669 0.6543 -62.3537 -17.2000 55.4776 -0.4549 -19.7206 -0.5263 -16.3268 16.9648 -28.4614 -11.1336 -3.3236 0.5992 0.2823 0.3763 0.0364 -4.0360 -0.1883 0.1067 -1.5149 8.5654 4.1389 1.4252 15.4617 0.6496 -1.3777 10.4158 3.0383 -4.3113 -4.9931 -0.3559 -4.5099 -0.0277 -0.0314 -1.0996 0.1038 0.0223 -10.0448 -5.7838 0.2669 -5.6037 -0.1245 -0.1163 5.1565 0.5750 0.1934 -9.6611 1.1831 0.7800 -5.8462 -4.2381 0.2934 -2.8575 -0.0810 0.0860 11.0597 13.4650 6.7243 57.3116 15.0600 51.5351 0.5205 10.9231 -0.2824 -10.4695 -6.6289 -14.2393 7.1821 3.1881 0.2971 -4.2591 -0.5468 -0.0347 2.0556 0.1062 0.0512 1.0595 -6.7792 3.6795 -1.0715 -14.5180 1.1271 1.5246 -7.9087 2.1688 0.3364 4.8221 -0.6415 0.5471 -0.1110 0.0176 -0.8818 -0.1728 0.0455 6.0644 5.6421 -0.0347 1.6422 -0.0310 -0.0308 -7.1379 -0.6450 0.2457 5.6024 2.7465 0.1741 2.0192 -0.0030 0.0620 0.8773 -0.0006 0.0286 -2.5233 -3.8549 -11.3978 -1.2349 2.0054 16.1355 3.9518 -0.2435 -1.9952 -0.0000 -0.0000 -0.0000 3.0538 0.7372 -9.7790 4.4039 6.0464 16.0111 -6.0507 0.0749 -2.7021 0.0000 -0.0000 -0.0001 
